Coordinates
version=1
nRows=16
nColumns=30
inDegrees=yes

Units are S.I. units (second, meters, Newtons, ...)
Angles are in degrees.

endheader
time	floatyaw	floatroll	floatpitch	floatx	floaty	floatz	pro_sup_l	deviation_l	flexion_l	cmc_flexion_l	cmc_abduction_l	mp_flexion_l	ip_flexion_l	2mcp_flexion_l	2mcp_abduction_l	2pm_flexion_l	2md_flexion_l	3mcp_flexion_l	3mcp_abduction_l	3pm_flexion_l	3md_flexion_l	4mcp_flexion_l	4mcp_abduction_l	4pm_flexion_l	4md_flexion_l	5mcp_flexion_l	5mcp_abduction_l	5pm_flexion_l	5md_flexion_l
-0.995000	-4.179282	-4.936475	96.455532	-0.107986	-0.183478	-0.040008	85.988890	0.377064	-2.840239	15.072091	3.833265	-22.046274	-34.249539	38.731343	9.522016	47.440274	34.168742	21.684256	5.035210	47.478918	33.389117	9.429104	-4.974275	62.502966	43.308084	1.251831	-8.524360	63.400856	43.482282
-0.985000	-4.179282	-4.936475	96.455532	-0.107976	-0.183465	-0.039981	86.012676	0.377456	-2.842148	15.041767	3.747518	-22.083924	-34.275262	38.747045	9.521274	47.444494	34.168058	21.691845	5.036237	47.479156	33.394199	9.431618	-4.977324	62.526682	43.317480	1.243527	-8.511355	63.402421	43.475777
-0.975000	-4.179282	-4.936475	96.455532	-0.107969	-0.183451	-0.039953	86.034361	0.374215	-2.842766	15.007876	3.660192	-22.119098	-34.299967	38.754294	9.526534	47.445218	34.168805	21.697765	5.038204	47.479865	33.401892	9.434884	-4.983362	62.547671	43.326610	1.235357	-8.494590	63.396755	43.465732
-0.965000	-4.179282	-4.936475	96.455532	-0.107965	-0.183442	-0.039925	86.052236	0.367484	-2.845710	14.971632	3.581210	-22.145709	-34.318630	38.754708	9.536211	47.448095	34.172933	21.702054	5.041917	47.482697	33.412293	9.443219	-4.993041	62.566632	43.335390	1.233926	-8.476285	63.387629	43.454804
-0.955000	-4.179282	-4.936475	96.455532	-0.107964	-0.183442	-0.039899	86.066822	0.358928	-2.852848	14.935936	3.516186	-22.161650	-34.329765	38.751506	9.548308	47.455954	34.180307	21.705504	5.047235	47.488256	33.424190	9.458789	-5.005428	62.584350	43.343542	1.243075	-8.458571	63.378777	43.445356
-0.945000	-4.179282	-4.936475	96.455532	-0.107964	-0.183447	-0.039875	86.080672	0.350869	-2.863223	14.903735	3.464912	-22.168546	-34.334823	38.748517	9.560992	47.467572	34.188968	21.709428	5.052857	47.496240	33.435854	9.480325	-5.018344	62.600621	43.350653	1.261667	-8.442240	63.371828	43.438466
-0.935000	-4.179282	-4.936475	96.455532	-0.107964	-0.183453	-0.039855	86.097232	0.345383	-2.873869	14.876594	3.422603	-22.169671	-34.336195	38.748944	9.572734	47.479070	34.196561	21.715288	5.056810	47.506094	33.446170	9.503826	-5.029426	62.613795	43.356214	1.284002	-8.426090	63.366475	43.434057
-0.925000	-4.179282	-4.936475	96.455532	-0.107961	-0.183452	-0.039836	86.119014	0.343585	-2.881842	14.854103	3.383199	-22.167723	-34.335330	38.754380	9.582220	47.487043	34.202053	21.724330	5.057323	47.517640	33.455342	9.524717	-5.037192	62.621450	43.359737	1.302920	-8.407824	63.362326	43.431723
-0.915000	-4.179282	-4.936475	96.455532	-0.107953	-0.183442	-0.039817	86.145744	0.345201	-2.886098	14.834220	3.342999	-22.163858	-34.332122	38.764544	9.588445	47.491380	34.206657	21.737263	5.053591	47.531229	33.464706	9.540273	-5.041510	62.622074	43.361071	1.313964	-8.386209	63.360432	43.431309
-0.905000	-4.179282	-4.936475	96.455532	-0.107941	-0.183425	-0.039797	86.173760	0.348672	-2.888103	14.814341	3.302526	-22.158301	-34.325763	38.777711	9.591029	47.495786	34.213281	21.754000	5.046107	47.547129	33.475696	9.551054	-5.043452	62.616691	43.360753	1.318018	-8.362743	63.362985	43.432756
-0.895000	-4.179282	-4.936475	96.455532	-0.107924	-0.183409	-0.039777	86.197516	0.351983	-2.890810	14.792626	3.265431	-22.151699	-34.316354	38.791422	9.590400	47.505496	34.224709	21.773519	5.036508	47.564407	33.488498	9.560568	-5.044802	62.608963	43.359938	1.320639	-8.341187	63.371527	43.435564
-0.885000	-4.179282	-4.936475	96.455532	-0.107905	-0.183400	-0.039759	86.212562	0.353823	-2.896672	14.768975	3.235137	-22.146029	-34.306079	38.803236	9.587608	47.523732	34.241638	21.793981	5.027135	47.580198	33.501290	9.573311	-5.047407	62.603303	43.359742	1.328610	-8.325182	63.385365	43.438661
-0.875000	-4.179282	-4.936475	96.455532	-0.107887	-0.183400	-0.039746	86.217917	0.354184	-2.905910	14.745038	3.211535	-22.144273	-34.298956	38.811468	9.583916	47.549390	34.261882	21.813113	5.020550	47.590287	33.510823	9.592208	-5.052495	62.602276	43.360519	1.346132	-8.316039	63.401574	43.440908
-0.865000	-4.179282	-4.936475	96.455532	-0.107872	-0.183408	-0.039739	86.216103	0.353869	-2.916208	14.723137	3.190101	-22.149004	-34.299010	38.815844	9.580487	47.577499	34.281386	21.828760	5.019063	47.591186	33.514346	9.616855	-5.060243	62.605384	43.361823	1.373059	-8.312550	63.416632	43.441867
-0.855000	-4.179282	-4.936475	96.455532	-0.107860	-0.183417	-0.039738	86.210997	0.353431	-2.924160	14.704766	3.164140	-22.160790	-34.307878	38.817813	9.578268	47.602063	34.296477	21.839425	5.024189	47.582644	33.511900	9.643572	-5.069809	62.610223	43.363220	1.405885	-8.312634	63.428519	43.442238
-0.845000	-4.179282	-4.936475	96.455532	-0.107852	-0.183426	-0.039741	86.205293	0.352565	-2.927664	14.689710	3.128677	-22.177589	-34.323405	38.820158	9.577894	47.619470	34.306021	21.844655	5.035979	47.568945	33.507507	9.667241	-5.079775	62.614963	43.365258	1.440348	-8.315069	63.437871	43.443737
